<?xml version="1.0" encoding="UTF-8" standalone="no"?>
<!DOCTYPE svg PUBLIC "-//W3C//DTD SVG 1.1//EN" "http://www.w3.org/Graphics/SVG/1.1/DTD/svg11.dtd">
<svg width="100%" height="100%" viewBox="0 0 1280 240" version="1.1" xmlns="http://www.w3.org/2000/svg" xmlns:xlink="http://www.w3.org/1999/xlink" xml:space="preserve" xmlns:serif="http://www.serif.com/" style="fill-rule:evenodd;clip-rule:evenodd;stroke-linejoin:round;stroke-miterlimit:2;">
    <g id="ArtBoard1" transform="matrix(1,0,0,0.933852,0,-27.0817)">
        <rect x="0" y="29" width="1280" height="257" style="fill:none;"/>
        <g transform="matrix(0.1,0,0,-0.107083,0,665.075)">
            <path d="M1181,5893C1112,5859 1066,5771 970,5495C936,5396 895,5286 878,5252C833,5156 835,5157 485,5159C182,5161 115,5154 54,5114C-1,5078 -14,5011 21,4945C53,4885 111,4829 265,4712C564,4486 584,4464 571,4380C567,4355 526,4225 480,4091C420,3913 396,3828 392,3780C384,3658 422,3600 511,3600C582,3600 656,3632 777,3715C1056,3907 1125,3951 1162,3962C1199,3973 1207,3972 1254,3947C1302,3922 1339,3895 1585,3708C1788,3554 1918,3528 1971,3632C2009,3706 1994,3808 1901,4103C1851,4264 1826,4374 1834,4404C1843,4442 1913,4501 2099,4630C2305,4773 2373,4829 2406,4885C2459,4976 2422,5064 2317,5095C2253,5114 2061,5129 1874,5130C1796,5130 1708,5134 1679,5140C1603,5154 1580,5184 1531,5339C1509,5408 1470,5531 1445,5611C1390,5787 1348,5859 1287,5889C1235,5914 1225,5914 1181,5893Z" style="fill:rgb(205,153,14);fill-rule:nonzero;"/>
            <path d="M3785,5901C3755,5888 3715,5848 3688,5804C3654,5749 3626,5680 3558,5485C3526,5392 3486,5287 3470,5252C3426,5157 3430,5158 3050,5156C2707,5155 2689,5152 2630,5097C2587,5056 2582,5012 2614,4946C2645,4882 2700,4829 2871,4700C3067,4552 3128,4501 3151,4463C3171,4431 3172,4424 3160,4367C3154,4333 3119,4224 3084,4126C2979,3834 2961,3738 2996,3664C3020,3615 3060,3596 3132,3603C3206,3610 3274,3647 3490,3798C3667,3922 3749,3970 3784,3970C3820,3970 3897,3920 4090,3774C4304,3612 4379,3570 4455,3570C4540,3570 4580,3620 4580,3728C4580,3799 4564,3864 4489,4114C4454,4230 4429,4335 4427,4367C4425,4422 4425,4422 4481,4474C4511,4502 4603,4571 4686,4627C4880,4761 4944,4811 4980,4862C5022,4920 5032,4963 5014,5009C4980,5095 4891,5118 4550,5127C4260,5134 4215,5142 4184,5188C4158,5227 4125,5318 4070,5505C4000,5743 3953,5846 3896,5883C3866,5903 3811,5912 3785,5901Z" style="fill:rgb(205,153,14);fill-rule:nonzero;"/>
            <path d="M6374,5896C6298,5862 6247,5768 6150,5485C6089,5305 6052,5220 6023,5188C6000,5162 5944,5158 5622,5156C5359,5155 5320,5153 5285,5137C5154,5078 5151,4975 5278,4852C5310,4820 5396,4750 5470,4694C5739,4493 5767,4462 5756,4386C5752,4363 5711,4233 5665,4095C5570,3815 5557,3747 5584,3675C5605,3620 5639,3600 5708,3600C5777,3600 5874,3652 6080,3796C6242,3910 6344,3970 6375,3970C6402,3970 6482,3924 6570,3858C6617,3823 6701,3759 6757,3716C6897,3610 6976,3570 7044,3570C7105,3570 7140,3591 7160,3640C7181,3691 7167,3828 7126,3965C7033,4273 7020,4324 7020,4375C7020,4426 7022,4430 7073,4476C7103,4503 7203,4577 7295,4640C7488,4771 7590,4864 7608,4925C7635,5020 7576,5085 7439,5110C7409,5116 7265,5124 7120,5129C6804,5139 6792,5142 6755,5222C6742,5251 6701,5374 6665,5495C6628,5618 6583,5744 6563,5783C6508,5887 6442,5927 6374,5896Z" style="fill:rgb(204,204,204);fill-rule:nonzero;"/>
            <path d="M8965,5896C8889,5863 8843,5780 8746,5499C8647,5212 8628,5176 8564,5164C8546,5161 8392,5157 8223,5156C7916,5155 7915,5155 7866,5130C7779,5086 7756,5027 7795,4946C7823,4887 7896,4820 8097,4668C8303,4511 8350,4465 8350,4419C8350,4372 8326,4288 8256,4093C8150,3798 8139,3699 8205,3633C8234,3604 8244,3600 8292,3600C8376,3600 8459,3645 8740,3845C8870,3937 8944,3973 8985,3966C9022,3959 9096,3909 9310,3746C9488,3611 9565,3570 9637,3570C9691,3570 9723,3587 9744,3628C9782,3705 9771,3787 9683,4075C9646,4196 9617,4314 9613,4353L9607,4421L9656,4468C9683,4494 9784,4569 9880,4635C10129,4806 10210,4889 10210,4971C10210,5035 10138,5090 10029,5110C9999,5116 9855,5124 9710,5129C9394,5139 9385,5141 9347,5222C9333,5252 9299,5353 9271,5446C9172,5784 9134,5863 9053,5896C9014,5913 9003,5913 8965,5896Z" style="fill:rgb(204,204,204);fill-rule:nonzero;"/>
            <path d="M11555,5896C11481,5864 11436,5782 11335,5490C11239,5214 11218,5176 11152,5164C11134,5160 10980,5157 10812,5156C10536,5155 10501,5153 10462,5136C10375,5098 10347,5024 10389,4942C10417,4888 10524,4790 10701,4657C10787,4593 10877,4519 10900,4494C10942,4448 10943,4447 10937,4390C10933,4358 10899,4243 10861,4134C10776,3888 10774,3880 10760,3801C10738,3674 10784,3600 10885,3600C10957,3600 11055,3651 11260,3794C11429,3913 11525,3970 11557,3970C11587,3970 11661,3928 11753,3858C12009,3664 12055,3631 12107,3605C12142,3587 12184,3575 12220,3572C12269,3568 12280,3571 12307,3594C12328,3612 12342,3636 12350,3669C12369,3748 12353,3823 12246,4175C12225,4241 12206,4323 12203,4358L12197,4421L12246,4468C12274,4494 12373,4568 12468,4633C12770,4840 12840,4929 12780,5027C12736,5101 12657,5117 12299,5129C11981,5139 11976,5140 11938,5226C11923,5259 11884,5377 11850,5489C11762,5780 11720,5864 11643,5896C11604,5913 11593,5913 11555,5896Z" style="fill:rgb(204,204,204);fill-rule:nonzero;"/>
        </g>
    </g>
</svg>
