<?xml version="1.0" encoding="UTF-8" standalone="no"?>
<!DOCTYPE svg PUBLIC "-//W3C//DTD SVG 1.1//EN" "http://www.w3.org/Graphics/SVG/1.1/DTD/svg11.dtd">
<svg width="100%" height="100%" viewBox="0 0 136 150" version="1.1" xmlns="http://www.w3.org/2000/svg" xmlns:xlink="http://www.w3.org/1999/xlink" xml:space="preserve" xmlns:serif="http://www.serif.com/" style="fill-rule:evenodd;clip-rule:evenodd;stroke-linecap:round;stroke-linejoin:round;stroke-miterlimit:1.5;">
    <g id="ArtBoard1" transform="matrix(0.918919,0,0,1.0138,-1079.73,-1712.36)">
        <rect x="1175" y="1689.04" width="148" height="147.958" style="fill:none;"/>
        <clipPath id="_clip1">
            <rect x="1175" y="1689.04" width="148" height="147.958"/>
        </clipPath>
        <g clip-path="url(#_clip1)">
            <g id="Ebene1" transform="matrix(1.08824,0,0,0.986384,-108.029,23.04)">
                <g transform="matrix(0.970735,0,0,0.970735,50.2077,52.9575)">
                    <circle cx="1229.23" cy="1762.61" r="63.201" style="fill:none;stroke:rgb(183,143,8);stroke-width:4.29px;"/>
                </g>
                <g transform="matrix(1,0,0,1,-121.176,-197.066)">
                    <path d="M1435.51,1888.6C1423.23,1902.29 1411.73,1916.47 1400.99,1931.11C1390.26,1945.76 1380.38,1960.78 1371.38,1976.19C1370.72,1977.32 1369.89,1978.91 1368.89,1980.95C1365.81,1987.11 1361.43,1990.19 1355.74,1990.19C1353.32,1990.19 1351.33,1989.84 1349.77,1989.12C1348.2,1988.41 1346.76,1987.18 1345.43,1985.43C1344.34,1983.91 1343.32,1981.93 1342.37,1979.49C1341.42,1977.05 1340.31,1973.46 1339.03,1968.72C1338.94,1968.44 1338.84,1968.08 1338.75,1967.65C1337.28,1962.39 1336.54,1959.1 1336.54,1957.77C1336.54,1955.07 1338.12,1952.59 1341.27,1950.34C1344.42,1948.09 1347.54,1946.97 1350.62,1946.97C1351.62,1946.97 1352.42,1947.26 1353.04,1947.86C1353.65,1948.45 1354.36,1949.72 1355.17,1951.66C1355.64,1952.84 1356.24,1954.45 1356.95,1956.49C1358.56,1961.04 1359.91,1963.32 1361,1963.32C1361.95,1963.32 1365.69,1958.13 1372.23,1947.75C1378.49,1937.84 1383.87,1929.52 1388.37,1922.79C1394.67,1913.36 1399.47,1906.55 1402.77,1902.35C1406.06,1898.16 1409.04,1894.97 1411.69,1892.79C1414.01,1890.89 1417,1889.4 1420.65,1888.31C1424.3,1887.22 1428.92,1886.49 1434.51,1886.11L1435.51,1888.6Z" style="fill:rgb(183,143,8);fill-rule:nonzero;"/>
                    <path d="M1362.45,1947.52C1361.15,1944.62 1359.81,1942.8 1358.81,1941.85C1356.71,1939.82 1354.02,1938.63 1350.62,1938.63C1345.96,1938.63 1341.19,1940.16 1336.43,1943.56C1330.55,1947.76 1328.21,1952.74 1328.21,1957.77C1328.21,1959.38 1328.91,1963.38 1330.67,1969.7C1330.79,1970.22 1330.91,1970.69 1331.04,1971.09C1332.4,1976.1 1333.59,1979.91 1334.61,1982.51C1335.85,1985.72 1337.23,1988.3 1338.66,1990.29C1338.7,1990.35 1338.74,1990.4 1338.79,1990.46C1341.07,1993.47 1343.63,1995.49 1346.32,1996.71C1348.79,1997.84 1351.92,1998.53 1355.74,1998.53C1364.52,1998.53 1371.59,1994.19 1376.35,1984.68C1376.36,1984.65 1376.37,1984.63 1376.38,1984.61C1377.26,1982.8 1377.99,1981.39 1378.58,1980.39C1387.44,1965.23 1397.15,1950.45 1407.71,1936.04C1418.29,1921.61 1429.62,1907.65 1441.71,1894.16C1443.83,1891.8 1444.42,1888.44 1443.25,1885.5L1442.25,1883.01C1440.91,1879.66 1437.56,1877.55 1433.95,1877.79C1427.62,1878.22 1422.39,1879.09 1418.26,1880.33C1413.42,1881.77 1409.5,1883.82 1406.42,1886.34C1406.41,1886.34 1406.41,1886.35 1406.4,1886.35C1403.38,1888.83 1399.96,1892.43 1396.21,1897.21C1392.84,1901.51 1387.91,1908.49 1381.44,1918.16C1376.91,1924.94 1371.49,1933.32 1365.19,1943.3C1365.19,1943.3 1365.18,1943.3 1365.18,1943.31C1364.26,1944.78 1363.34,1946.19 1362.45,1947.52ZM1435.51,1888.6C1423.23,1902.29 1411.73,1916.47 1400.99,1931.11C1390.26,1945.76 1380.38,1960.78 1371.38,1976.19C1370.72,1977.32 1369.89,1978.91 1368.89,1980.95C1365.81,1987.11 1361.43,1990.19 1355.74,1990.19C1353.32,1990.19 1351.33,1989.84 1349.77,1989.12C1348.2,1988.41 1346.76,1987.18 1345.43,1985.43C1344.34,1983.91 1343.32,1981.93 1342.37,1979.49C1341.42,1977.05 1340.31,1973.46 1339.03,1968.72C1338.94,1968.44 1338.84,1968.08 1338.75,1967.65C1337.28,1962.39 1336.54,1959.1 1336.54,1957.77C1336.54,1955.07 1338.12,1952.59 1341.27,1950.34C1344.42,1948.09 1347.54,1946.97 1350.62,1946.97C1351.62,1946.97 1352.42,1947.26 1353.04,1947.86C1353.65,1948.45 1354.36,1949.72 1355.17,1951.66C1355.64,1952.84 1356.24,1954.45 1356.95,1956.49C1358.56,1961.04 1359.91,1963.32 1361,1963.32C1361.95,1963.32 1365.69,1958.13 1372.23,1947.75C1378.49,1937.84 1383.87,1929.52 1388.37,1922.79C1394.67,1913.36 1399.47,1906.55 1402.77,1902.35C1406.06,1898.16 1409.04,1894.97 1411.69,1892.79C1414.01,1890.89 1417,1889.4 1420.65,1888.31C1424.3,1887.22 1428.92,1886.49 1434.51,1886.11L1435.51,1888.6Z" style="fill:white;"/>
                </g>
            </g>
        </g>
    </g>
</svg>
