<?xml version="1.0" encoding="UTF-8" standalone="no"?>
<!DOCTYPE svg PUBLIC "-//W3C//DTD SVG 1.1//EN" "http://www.w3.org/Graphics/SVG/1.1/DTD/svg11.dtd">
<svg width="100%" height="100%" viewBox="0 0 333 175" version="1.1" xmlns="http://www.w3.org/2000/svg" xmlns:xlink="http://www.w3.org/1999/xlink" xml:space="preserve" xmlns:serif="http://www.serif.com/" style="fill-rule:evenodd;clip-rule:evenodd;stroke-miterlimit:10;">
    <g id="ArtBoard1" transform="matrix(0.940678,0,0,0.921053,-1001.82,-1530.79)">
        <rect x="1065" y="1662" width="354" height="190" style="fill:none;"/>
        <clipPath id="_clip1">
            <rect x="1065" y="1662" width="354" height="190"/>
        </clipPath>
        <g clip-path="url(#_clip1)">
            <g id="text" transform="matrix(2.21471,0,0,2.2619,1065.61,1675.53)">
                <path d="M2.891,24.672L2.891,1.547L17.438,1.547L17.438,4.719L7.703,4.719L7.703,11.75L15.703,11.75L15.703,14.938L7.703,14.938L7.703,24.672L2.891,24.672Z" style="fill:rgb(183,143,8);fill-rule:nonzero;"/>
                <path d="M21.266,24.672L21.266,1.547L29.922,1.547C34.62,1.547 36.969,3.458 36.969,7.281C36.969,8.708 36.57,10.008 35.773,11.18C34.977,12.352 33.88,13.25 32.484,13.875L40.047,24.672L34.188,24.672L28.453,15.219L25.797,15.219L25.797,24.672L21.266,24.672ZM25.797,12.047L26.906,12.047C30.396,12.047 32.141,10.635 32.141,7.813C32.141,5.75 30.583,4.719 27.469,4.719L25.797,4.719L25.797,12.047Z" style="fill:rgb(183,143,8);fill-rule:nonzero;"/>
                <path d="M43.344,24.672L43.344,1.547L57.797,1.547L57.797,4.719L48.156,4.719L48.156,11.172L56.063,11.172L56.063,14.266L48.156,14.266L48.156,21.391L58.531,21.391L58.531,24.672L43.344,24.672Z" style="fill:rgb(183,143,8);fill-rule:nonzero;"/>
                <rect x="62.563" y="1.547" width="4.813" height="23.125" style="fill:rgb(183,143,8);fill-rule:nonzero;"/>
            </g>
            <g id="paket">
                <g transform="matrix(1.06306,0,0,1.08571,-77.7928,-148.971)">
                    <path d="M1331.82,1672L1404.74,1713L1404.74,1789L1331.82,1839.35L1258.91,1794L1258.91,1715L1331.82,1672Z" style="fill:none;stroke:rgb(183,143,8);stroke-width:4.17px;"/>
                </g>
                <g transform="matrix(1.06306,0,0,1.08571,-77.7928,-148.971)">
                    <path d="M1296.3,1692.95L1368.37,1734.34" style="fill:none;stroke:rgb(183,143,8);stroke-width:4.17px;"/>
                </g>
                <g transform="matrix(1.06306,0,0,1.08571,-77.7928,-148.971)">
                    <path d="M1344,1764.35L1360,1754.68L1360,1768L1344,1778L1344,1764.35Z" style="fill:none;stroke:rgb(183,143,8);stroke-width:4.17px;"/>
                </g>
                <g transform="matrix(1.06306,0,0,1.08571,-77.7928,-148.971)">
                    <path d="M1332,1755.68L1258.91,1715" style="fill:none;stroke:rgb(183,143,8);stroke-width:4.17px;"/>
                </g>
                <g transform="matrix(1.06306,0,0,1.08571,-77.7928,-148.971)">
                    <path d="M1332,1755.68L1404.74,1713" style="fill:none;stroke:rgb(183,143,8);stroke-width:4.17px;"/>
                </g>
                <g transform="matrix(1.06306,0,0,1.08571,-77.7928,-148.971)">
                    <path d="M1331.82,1755.68L1332,1839.35" style="fill:none;stroke:rgb(183,143,8);stroke-width:4.17px;"/>
                </g>
            </g>
            <g id="lines">
                <g transform="matrix(1.06306,0,0,1.08571,-77.7928,-148.971)">
                    <path d="M1138,1766.84L1213.07,1766.84" style="fill:none;stroke:rgb(183,143,8);stroke-width:4.17px;"/>
                </g>
                <g transform="matrix(1.06306,0,0,1.08571,-77.7928,-148.971)">
                    <path d="M1213.07,1787.27L1116,1787.27" style="fill:none;stroke:rgb(183,143,8);stroke-width:4.17px;"/>
                </g>
                <g transform="matrix(1.06306,0,0,1.08571,-77.7928,-148.971)">
                    <path d="M1213.07,1807.7L1075.57,1807" style="fill:none;stroke:rgb(183,143,8);stroke-width:4.17px;"/>
                </g>
            </g>
        </g>
    </g>
</svg>
