<?xml version="1.0" encoding="UTF-8" standalone="no"?>
<!DOCTYPE svg PUBLIC "-//W3C//DTD SVG 1.1//EN" "http://www.w3.org/Graphics/SVG/1.1/DTD/svg11.dtd">
<svg width="100%" height="100%" viewBox="0 0 302 47" version="1.1" xmlns="http://www.w3.org/2000/svg" xmlns:xlink="http://www.w3.org/1999/xlink" xml:space="preserve" xmlns:serif="http://www.serif.com/" style="fill-rule:evenodd;clip-rule:evenodd;stroke-linejoin:round;stroke-miterlimit:2;">
    <g>
        <path d="M66,3.633C66,1.628 64.372,0 62.367,0L3.633,0C1.628,0 0,1.628 0,3.633L0,43.367C0,45.372 1.628,47 3.633,47L62.367,47C64.372,47 66,45.372 66,43.367L66,3.633Z" style="fill:white;"/>
        <path d="M66,3.633C66,1.628 64.372,0 62.367,0L3.633,0C1.628,0 0,1.628 0,3.633L0,43.367C0,45.372 1.628,47 3.633,47L62.367,47C64.372,47 66,45.372 66,43.367L66,3.633ZM65,3.633L65,43.367C65,44.82 63.82,46 62.367,46L3.633,46C2.18,46 1,44.82 1,43.367L1,3.633C1,2.18 2.18,1 3.633,1L62.367,1C63.82,1 65,2.18 65,3.633Z" style="fill:rgb(224,224,224);"/>
        <g transform="matrix(1,0,0,1,-0.656697,0)">
            <g transform="matrix(0.158768,0,0,0.158768,-3.33436,25.7527)">
                <path d="M292.5,24.9C289.7,21.6 284.6,19.8 277.9,19.8L257.9,19.8C256.5,19.8 255.4,20.8 255.2,22.1L247.1,73.4C246.9,74.4 247.7,75.3 248.7,75.3L259,75.3C260,75.3 260.8,74.6 260.9,73.7L263.2,59.2C263.4,57.8 264.6,56.9 265.9,56.9L272.2,56.9C285.4,56.9 293,50.5 295,37.9C296,32.2 295.1,27.9 292.5,24.9ZM280.2,38.5C279.1,45.7 273.6,45.7 268.3,45.7L265.3,45.7L267.4,32.3C267.5,31.5 268.2,30.9 269,30.9L270.4,30.9C274,30.9 277.4,30.9 279.2,33C280.3,34.1 280.6,36 280.2,38.5Z" style="fill:rgb(23,155,215);fill-rule:nonzero;"/>
            </g>
            <g transform="matrix(0.158768,0,0,0.158768,-3.33436,25.7527)">
                <path d="M337.7,38.3L328.1,38.3C327.3,38.3 326.6,38.9 326.5,39.7L326.1,42.4L325.4,41.4C323.3,38.4 318.7,37.4 314.1,37.4C303.5,37.4 294.5,45.4 292.7,56.7C291.8,62.3 293.1,67.7 296.3,71.4C299.2,74.8 303.4,76.3 308.4,76.3C316.9,76.3 321.7,70.8 321.7,70.8L321.3,73.5C321.1,74.5 321.9,75.4 322.9,75.4L331.5,75.4C332.9,75.4 334,74.4 334.2,73L339.4,40.2C339.5,39.2 338.8,38.3 337.7,38.3ZM324.4,56.9C323.5,62.4 319.1,66 313.6,66C310.8,66 308.6,65.1 307.2,63.4C305.8,61.7 305.3,59.3 305.7,56.7C306.6,51.3 311,47.5 316.4,47.5C319.1,47.5 321.3,48.4 322.8,50.1C324.2,51.8 324.8,54.3 324.4,56.9Z" style="fill:rgb(23,155,215);fill-rule:nonzero;"/>
            </g>
            <g transform="matrix(0.158768,0,0,0.158768,-3.33436,25.7527)">
                <path d="M359.9,19.7L350.7,19.7C349.9,19.7 349.2,20.3 349.1,21.1L340.9,73.3C340.7,74.3 341.5,75.2 342.5,75.2L350.8,75.2C352.2,75.2 353.3,74.2 353.5,72.9L361.6,21.6C361.7,20.7 360.9,19.7 359.9,19.7Z" style="fill:rgb(23,155,215);fill-rule:nonzero;"/>
            </g>
            <g transform="matrix(0.158768,0,0,0.158768,-3.33436,25.7527)">
                <path d="M149.8,24.9C147,21.6 141.9,19.8 135.2,19.8L115.2,19.8C113.8,19.8 112.7,20.8 112.5,22.1L104.4,73.4C104.2,74.4 105,75.3 106.1,75.3L115.7,75.3C117.1,75.3 118.2,74.3 118.4,73L120.6,59.2C120.8,57.8 122,56.9 123.3,56.9L129.6,56.9C142.8,56.9 150.4,50.5 152.4,37.9C153.2,32.2 152.4,27.9 149.8,24.9ZM137.5,38.5C136.4,45.7 130.9,45.7 125.6,45.7L122.6,45.7L124.7,32.3C124.8,31.5 125.5,30.9 126.3,30.9L127.7,30.9C131.3,30.9 134.7,30.9 136.5,33C137.6,34.1 137.9,36 137.5,38.5Z" style="fill:rgb(37,59,128);fill-rule:nonzero;"/>
            </g>
            <g transform="matrix(0.158768,0,0,0.158768,-3.33436,25.7527)">
                <path d="M195,38.3L185.4,38.3C184.6,38.3 183.9,38.9 183.8,39.7L183.4,42.4L182.7,41.4C180.6,38.4 176,37.4 171.4,37.4C160.8,37.4 151.8,45.4 150,56.7C149.1,62.3 150.4,67.7 153.6,71.4C156.5,74.8 160.7,76.3 165.7,76.3C174.2,76.3 179,70.8 179,70.8L178.6,73.5C178.4,74.5 179.2,75.4 180.2,75.4L188.8,75.4C190.2,75.4 191.3,74.4 191.5,73L196.7,40.2C196.8,39.2 196,38.3 195,38.3ZM181.7,56.9C180.8,62.4 176.4,66 170.9,66C168.1,66 165.9,65.1 164.5,63.4C163.1,61.7 162.5,59.3 163,56.7C163.9,51.3 168.3,47.5 173.7,47.5C176.4,47.5 178.6,48.4 180.1,50.1C181.5,51.8 182.1,54.3 181.7,56.9Z" style="fill:rgb(37,59,128);fill-rule:nonzero;"/>
            </g>
            <g transform="matrix(0.158768,0,0,0.158768,-3.33436,25.7527)">
                <path d="M246,38.3L236.4,38.3C235.5,38.3 234.6,38.8 234.1,39.5L220.8,59L215.2,40.2C214.8,39 213.8,38.2 212.5,38.2L203,38.2C201.8,38.2 201.1,39.3 201.4,40.4L212,71.5L202,85.6C201.2,86.7 202,88.2 203.4,88.2L213,88.2C213.9,88.2 214.8,87.8 215.3,87L247.3,40.8C248.2,39.8 247.4,38.3 246,38.3Z" style="fill:rgb(37,59,128);fill-rule:nonzero;"/>
            </g>
            <g transform="matrix(0.23176,0,0,0.23176,25.802,6.69814)">
                <path d="M71.3,25.4C70.2,24.2 68.9,23.2 67.4,22.4C67.3,22.9 67.2,23.5 67.1,24C67,24.5 66.9,25 66.8,25.5C63.3,40.8 53.5,47.3 40.8,48.7C40,48.8 39.1,48.9 38.2,48.9C37.2,49 36.3,49 35.3,49L27.2,49C25.3,49 23.6,50.4 23.3,52.3L19.6,75.5L19.1,78.5L17.9,85.9C17.7,87.1 18.7,88.3 19.9,88.3L34.2,88.3C35.9,88.3 37.3,87.1 37.6,85.4L37.7,84.7L40.4,67.6L40.6,66.7C40.9,65 42.3,63.8 44,63.8L46.1,63.8C59.9,63.8 70.8,58.2 73.9,41.9C75.5,35.1 74.8,29.4 71.3,25.4Z" style="fill:rgb(23,155,215);fill-rule:nonzero;"/>
            </g>
            <g transform="matrix(0.23176,0,0,0.23176,25.802,6.69814)">
                <path d="M23.4,52.4L23.5,51.6L28.1,22.6C28.3,21.5 29,20.5 30,20C30.5,19.8 31,19.7 31.5,19.7L53,19.7C55.5,19.7 57.9,19.9 60.1,20.2C60.7,20.3 61.3,20.4 61.9,20.5C62.5,20.6 63.1,20.8 63.6,20.9C63.8,21 64,21 64.2,21.1C64.3,21.1 64.3,21.1 64.4,21.2L64.5,21.2C65.5,21.5 66.5,21.9 67.4,22.4C68.5,15.5 67.4,10.9 63.7,6.6C59.6,2 52.2,0 42.8,0L15.3,0C13.4,0 11.7,1.4 11.4,3.3L0,75.8C-0.2,77.2 0.9,78.5 2.3,78.5L19.2,78.5L19.7,75.5L23.4,52.4Z" style="fill:rgb(37,59,128);fill-rule:nonzero;"/>
            </g>
            <g transform="matrix(0.23176,0,0,0.23176,25.802,6.69814)">
                <path d="M67.4,22.4C66.5,21.9 65.6,21.5 64.5,21.2L64.4,21.2C64.3,21.2 64.3,21.2 64.2,21.1C64,21 63.8,21 63.6,20.9C63,20.7 62.5,20.6 61.9,20.5C61.3,20.4 60.7,20.3 60.1,20.2C57.9,19.8 55.6,19.7 53,19.7L31.5,19.7C31,19.7 30.5,19.8 30,20C29,20.5 28.3,21.4 28.1,22.6L23.5,51.6L23.4,52.4C23.7,50.5 25.3,49.1 27.3,49.1L35.4,49.1C36.4,49.1 37.4,49.1 38.3,49C39.2,49 40,48.9 40.9,48.8C53.6,47.4 63.4,40.9 66.9,25.6C67,25.1 67.1,24.6 67.2,24.1C67.3,23.5 67.4,23 67.4,22.4Z" style="fill:rgb(34,45,101);fill-rule:nonzero;"/>
            </g>
        </g>
    </g>
    <g>
        <g transform="matrix(1,0,0,1,78.6598,0)">
            <path d="M66,3.633C66,1.628 64.372,0 62.367,0L3.633,0C1.628,0 0,1.628 0,3.633L0,43.367C0,45.372 1.628,47 3.633,47L62.367,47C64.372,47 66,45.372 66,43.367L66,3.633Z" style="fill:white;"/>
            <path d="M66,3.633C66,1.628 64.372,0 62.367,0L3.633,0C1.628,0 0,1.628 0,3.633L0,43.367C0,45.372 1.628,47 3.633,47L62.367,47C64.372,47 66,45.372 66,43.367L66,3.633ZM65,3.633L65,43.367C65,44.82 63.82,46 62.367,46L3.633,46C2.18,46 1,44.82 1,43.367C1,43.367 1,3.633 1,3.633C1,2.18 2.18,1 3.633,1L62.367,1C63.82,1 65,2.18 65,3.633Z" style="fill:rgb(224,224,224);"/>
        </g>
        <g transform="matrix(1,0,0,1,-0.35791,0)">
            <g id="rect19" transform="matrix(0.043101,0,0,0.043101,90.4845,10.1818)">
                <rect x="364" y="66.1" width="270.4" height="485.8" style="fill:rgb(255,90,0);"/>
            </g>
            <g id="XMLID_330_" transform="matrix(0.043101,0,0,0.043101,90.4845,10.1818)">
                <path d="M382,309C382,210.3 428.4,122.7 499.6,66.1C447.2,24.9 381.1,0 309,0C138.2,0 0,138.2 0,309C0,479.8 138.2,618 309,618C381.1,618 447.2,593.1 499.6,551.9C428.3,496.1 382,407.7 382,309Z" style="fill:rgb(235,34,27);fill-rule:nonzero;"/>
            </g>
            <g id="path22" transform="matrix(0.043101,0,0,0.043101,90.4845,10.1818)">
                <path d="M999.2,309C999.2,479.8 861,618 690.2,618C618.1,618 552,593.1 499.6,551.9C571.7,495.2 617.2,407.7 617.2,309C617.2,210.3 570.8,122.7 499.6,66.1C551.9,24.9 618,0 690.1,0C861,0 999.2,139.1 999.2,309Z" style="fill:rgb(247,158,27);fill-rule:nonzero;"/>
            </g>
        </g>
    </g>
    <g>
        <g transform="matrix(1,0,0,1,157.32,0)">
            <path d="M66,3.633C66,1.628 64.372,0 62.367,0L3.633,0C1.628,0 0,1.628 0,3.633L0,43.367C0,45.372 1.628,47 3.633,47L62.367,47C64.372,47 66,45.372 66,43.367L66,3.633Z" style="fill:white;"/>
            <path d="M66,3.633C66,1.628 64.372,0 62.367,0L3.633,0C1.628,0 0,1.628 0,3.633L0,43.367C0,45.372 1.628,47 3.633,47L62.367,47C64.372,47 66,45.372 66,43.367L66,3.633ZM65,3.633L65,43.367C65,44.82 63.82,46 62.367,46L3.633,46C2.18,46 1,44.82 1,43.367C1,43.367 1,3.633 1,3.633C1,2.18 2.18,1 3.633,1L62.367,1C63.82,1 65,2.18 65,3.633Z" style="fill:rgb(224,224,224);"/>
        </g>
        <g transform="matrix(1,0,0,1,1.59465,0)">
            <g transform="matrix(0.308649,0,0,0.308649,163.809,13.8297)">
                <path d="M5.51,11.87C7.53,10.83 9.84,11.25 12.01,11.21C16.98,11.34 21.96,11.09 26.93,11.31C29.17,11.3 31.09,13.16 31.4,15.33C32.96,22.89 34.39,30.48 35.92,38.06C33.39,29.18 26.71,21.93 18.86,17.32C14.71,14.83 10.08,13.38 5.51,11.87Z" style="fill:rgb(27,77,162);fill-rule:nonzero;"/>
            </g>
            <g transform="matrix(0.308649,0,0,0.308649,163.809,13.8297)">
                <path d="M48.75,11.23C53.06,11.28 57.36,11.26 61.66,11.23C55.12,26.86 49.02,42.67 42.34,58.24C38.14,58.11 33.94,58.17 29.74,58.17C26.02,44.58 22.55,30.92 18.86,17.32C26.71,21.93 33.39,29.18 35.92,38.06C36.3,39.78 36.57,41.54 36.9,43.28C40.82,32.59 44.79,21.91 48.75,11.23Z" style="fill:rgb(27,77,162);fill-rule:nonzero;"/>
            </g>
            <g transform="matrix(0.308649,0,0,0.308649,163.809,13.8297)">
                <path d="M66.49,11.21C70.54,11.24 74.59,11.24 78.64,11.21C76.15,26.87 73.53,42.51 71.1,58.18C67.07,58.19 63.04,58.19 59,58.18C61.32,42.5 64.05,26.88 66.49,11.21Z" style="fill:rgb(27,77,162);fill-rule:nonzero;"/>
            </g>
            <g transform="matrix(0.308649,0,0,0.308649,163.809,13.8297)">
                <path d="M90.16,14.16C97.42,9.39 106.91,9.53 114.94,12.17C114.57,15.64 113.99,19.08 113.39,22.51C109.12,20.46 104.14,19.55 99.5,20.74C97.31,21.26 95.15,23.98 96.97,26.02C100.71,29.85 106.6,30.72 110.12,34.89C114.2,38.88 114.05,45.6 111.27,50.27C108.33,55.2 102.67,57.78 97.16,58.52C90.93,59.17 84.44,58.78 78.6,56.37C79.22,52.87 79.74,49.35 80.37,45.85C85.42,48.46 91.28,49.77 96.91,48.52C98.82,47.88 100.79,46.31 100.62,44.07C99.99,41.4 97.2,40.26 95.03,39.05C90.82,36.98 86.29,34.44 84.4,29.89C82.05,24.14 85.16,17.41 90.16,14.16Z" style="fill:rgb(27,77,162);fill-rule:nonzero;"/>
            </g>
            <g transform="matrix(0.308649,0,0,0.308649,163.809,13.8297)">
                <path d="M129.99,16.02C130.8,13.86 132.4,11.51 134.93,11.38C138.65,11.12 142.39,11.34 146.11,11.27C149.44,26.91 152.66,42.56 155.94,58.2C152.2,58.21 148.46,58.21 144.72,58.22C144.19,55.87 143.69,53.51 143.21,51.14C138.02,51.14 132.84,51.15 127.66,51.12C126.83,53.49 125.97,55.86 125.08,58.21C120.84,58.21 116.6,58.21 112.36,58.22C118.22,44.15 124.14,30.1 129.99,16.02Z" style="fill:rgb(27,77,162);fill-rule:nonzero;"/>
            </g>
            <g transform="matrix(0.308649,0,0,0.308649,163.809,13.8297)">
                <path d="M131.19,41.46C133.45,35.65 135.3,29.67 137.83,23.97C138.58,29.87 140.05,35.65 141.26,41.47C137.9,41.47 134.55,41.47 131.19,41.46Z" style="fill:white;fill-rule:nonzero;"/>
            </g>
        </g>
    </g>
    <g>
        <g transform="matrix(1,0,0,1,235.979,0)">
            <path d="M66,3.633C66,1.628 64.372,0 62.367,0L3.633,0C1.628,0 0,1.628 0,3.633L0,43.367C0,45.372 1.628,47 3.633,47L62.367,47C64.372,47 66,45.372 66,43.367L66,3.633Z" style="fill:white;"/>
            <path d="M66,3.633C66,1.628 64.372,0 62.367,0L3.633,0C1.628,0 0,1.628 0,3.633L0,43.367C0,45.372 1.628,47 3.633,47L62.367,47C64.372,47 66,45.372 66,43.367L66,3.633ZM65,3.633L65,43.367C65,44.82 63.82,46 62.367,46L3.633,46C2.18,46 1,44.82 1,43.367C1,43.367 1,3.633 1,3.633C1,2.18 2.18,1 3.633,1L62.367,1C63.82,1 65,2.18 65,3.633Z" style="fill:rgb(224,224,224);"/>
        </g>
        <g id="XMLID_34_" transform="matrix(0.0937874,0,0,0.0937874,244.967,14.0308)">
            <path d="M93.6,27.1C87.6,34.2 78,39.8 68.4,39C67.2,29.4 71.9,19.2 77.4,12.9C83.4,5.6 93.9,0.4 102.4,-0C103.4,10 99.5,19.8 93.6,27.1M102.3,40.9C88.4,40.1 76.5,48.8 69.9,48.8C63.2,48.8 53.1,41.3 42.1,41.5C27.8,41.7 14.5,49.8 7.2,62.7C-7.8,88.5 3.3,126.7 17.8,147.7C24.9,158.1 33.4,169.5 44.6,169.1C55.2,168.7 59.4,162.2 72.2,162.2C85.1,162.2 88.8,169.1 100,168.9C111.6,168.7 118.9,158.5 126,148.1C134.1,136.3 137.4,124.8 137.6,124.2C137.4,124 115.2,115.5 115,89.9C114.8,68.5 132.5,58.3 133.3,57.7C123.3,42.9 107.7,41.3 102.3,40.9M182.6,11.9L182.6,167.8L206.8,167.8L206.8,114.5L240.3,114.5C270.9,114.5 292.4,93.5 292.4,63.1C292.4,32.7 271.3,11.9 241.1,11.9L182.6,11.9ZM206.8,32.3L234.7,32.3C255.7,32.3 267.7,43.5 267.7,63.2C267.7,82.9 255.7,94.2 234.6,94.2L206.8,94.2L206.8,32.3ZM336.6,169C351.8,169 365.9,161.3 372.3,149.1L372.8,149.1L372.8,167.8L395.2,167.8L395.2,90.2C395.2,67.7 377.2,53.2 349.5,53.2C323.8,53.2 304.8,67.9 304.1,88.1L325.9,88.1C327.7,78.5 336.6,72.2 348.8,72.2C363.6,72.2 371.9,79.1 371.9,91.8L371.9,100.4L341.7,102.2C313.6,103.9 298.4,115.4 298.4,135.4C298.4,155.6 314.1,169 336.6,169ZM343.1,150.5C330.2,150.5 322,144.3 322,134.8C322,125 329.9,119.3 345,118.4L371.9,116.7L371.9,125.5C371.9,140.1 359.5,150.5 343.1,150.5ZM425.1,210.2C448.7,210.2 459.8,201.2 469.5,173.9L512,54.7L487.4,54.7L458.9,146.8L458.4,146.8L429.9,54.7L404.6,54.7L445.6,168.2L443.4,175.1C439.7,186.8 433.7,191.3 423,191.3C421.1,191.3 417.4,191.1 415.9,190.9L415.9,209.6C417.3,210 423.3,210.2 425.1,210.2Z" style="fill-rule:nonzero;"/>
        </g>
    </g>
</svg>
