<?xml version="1.0" encoding="utf-8"?>
<!-- Generator: Adobe Illustrator 25.4.1, SVG Export Plug-In . SVG Version: 6.00 Build 0)  -->
<svg version="1.1" id="Ebene_1" xmlns="http://www.w3.org/2000/svg" xmlns:xlink="http://www.w3.org/1999/xlink" x="0px" y="0px"
	 width="300px" height="157.9px" viewBox="0 0 300 157.9" style="enable-background:new 0 0 300 157.9;" xml:space="preserve">
<style type="text/css">
	.st0{fill:#CCA658;}
</style>
<path class="st0" d="M112.8,68.6c0-10.2,3-19.4,9.6-27.2c6.1-7.3,13.5-12.7,22.7-15.5c5.2-1.6,10.6-2,15.9-1.3
	c10.1,1.3,19.2,5,26.9,11.8c4.6,4.1,8,9.1,10.4,14.8c1.8,4.1,2.9,8.3,3.7,12.7c0.1,0.6-0.1,0.8-0.6,1c-1.3,0.3-2.6,0.5-3.8,0.8
	c-0.8,0.2-1-0.4-1.2-1c-0.8-2.7-1.7-5.4-2.4-8.2c-0.2-0.9-0.6-0.8-1.2-0.5c-4.2,1.8-8.1,4.1-12.2,6.1c-2.1,1-4.3,1.8-6.5,2.7
	c-2.6,1.1-3.1,2.2-2.1,4.9c0.3,0.8,0.1,1-0.7,0.9c-1.8-0.1-3.6-0.2-5.4-0.2c-0.7,0-1-0.4-1.2-1c-0.6-1.6-1.3-3.2-2.4-4.6
	c-1.4-1.8-3.4-2.4-5.7-2.1c-2.7,0.3-4.5,1.7-5.5,4.2c-0.3,0.8-0.6,1.6-0.6,2.4c0,1-0.5,1.2-1.4,1.2c-1.4,0-2.8,0-4.3,0.3
	c-1.3,0.2-1.5,0.1-1.6-1.2c-0.1-1.9-1.3-3-3-3.5c-2.8-1-5.7-1.9-8.5-2.9c-3.6-1.3-7.2-2.7-10.8-4.1c-0.8-0.3-1.2-0.3-1.2,0.7
	c-0.2,2.8-0.6,5.7-0.8,8.5c-0.2,2.1-0.5,4.1-0.6,6.2c0,0.5-0.3,0.6-0.7,0.8c-1.2,0.5-2.4,0.9-3.6,1.4c-0.5,0.2-0.6-0.1-0.6-0.4
	c-0.4-1.9-0.5-3.9-0.6-5.9C112.7,69.7,112.8,69.1,112.8,68.6z M156.7,54.9c1.7,0,3.3-0.1,4-2c2.3-6.7,4.6-13.4,6.9-20.1
	c0.2-0.6,0.1-0.7-0.5-0.9c-1.6-0.5-3.3-0.8-5-1.1c-6.1-0.9-12-0.1-17.7,2.1c-0.9,0.3-1,0.7-0.6,1.5c2.8,6.1,5.7,12.2,8.7,18.2
	c0.8,1.6,1.8,2.2,3.5,2.2C156.2,54.9,156.4,54.9,156.7,54.9z M148.2,57.2c0-1.3-0.4-2.2-0.8-3.1c-2.6-6-5.9-11.8-8-18
	c-0.3-0.8-0.6-0.7-1.1-0.4c-1.7,0.9-3.3,2-4.8,3.1c-4.7,3.6-8.3,8.1-10.8,13.5c-0.3,0.7-0.4,1,0.5,1.4c6.7,2.6,13.4,5.2,20,7.8
	c0.6,0.2,1.2,0.2,1.8,0C146.1,61.1,148.2,58.1,148.2,57.2z M169.9,60.2c1.3,0,2.3-0.6,3.4-1.1c5.7-2.6,11.4-5.2,17.2-7.8
	c0.6-0.3,0.9-0.5,0.5-1.1c-3.7-6.8-9.1-11.9-16-15.3c-0.6-0.3-0.9-0.1-1.1,0.5c-2.7,6.4-5.5,12.8-8.3,19.2c-0.3,0.8-0.6,1.6-0.3,2.4
	C165.7,58,168.7,60.1,169.9,60.2z"/>
<path class="st0" d="M30,44.3c0.9,0,2-0.2,2.4,0.6c0.4,0.8-0.7,1.3-1.1,2c-0.9,1.3-2.1,2.4-3.1,3.7c-1.5,2-2,4.4-2.4,6.9
	c-0.7,3.8-0.3,7.6,0,11.4c0.4,4.3,0.5,8.6,0.7,12.9c0.2,3.4,0.3,6.7,0.2,10.1c-0.2,5.8-0.6,11.6-1.3,17.4c-0.3,3.2-0.8,6.4-1.4,9.6
	c-1.2,5.7-2.1,11.6-4.6,16.9c-2.1,4.6-4.8,8.8-7.7,12.8c-2.6,3.5-5.9,6.3-9.5,8.7c-0.2,0.1-0.4,0.3-0.7,0.4c-0.5,0.2-1,0.4-1.4,0
	c-0.4-0.5-0.1-0.9,0.2-1.3c3.5-5.6,5.2-11.9,6.9-18.2c1.4-5.2,2.7-10.4,3.6-15.7c0.8-4.3,1.5-8.6,2-13c0.8-7.3,1-14.5,0.8-21.8
	c-0.1-4.8-0.4-9.6-0.8-14.3C12.6,68.1,11.2,63,10,57.8c-0.8-3.6-3.2-6.2-5.3-9c-0.2-0.3-0.5-0.6-0.7-1c-0.8-1.1-0.7-1.3,0.6-1.7
	c1.7-0.5,3.5-0.3,5.2-0.4c4.4-0.4,8.7-0.7,13.1-0.9C25.3,44.7,27.6,44.4,30,44.3z"/>
<path class="st0" d="M296,157.7c-3.9,0-7.3-1.1-10.7-2.8c-3.8-2-7.6-3.9-10.8-6.8c-7.3-6.5-12.7-14.1-15.4-23.6
	c-1.4-5-2.3-10-2.5-15.2c0-1.1,0-2.2,0.1-3.3c0.4-5.5-1.6-10-5.1-14c-0.4-0.5-0.9-1-1.3-1.5c-2.1-3-5.3-4.3-8.6-5.3
	c-0.8-0.2-1.8-0.5-2-1.4c-0.2-0.8,0.7-1.4,1.3-1.9c3.3-3,6.8-5.7,10-8.9c0.4-0.4,0.9-0.8,1.5-0.4c0.6,0.4,0.5,0.9,0.3,1.6
	c-0.2,0.8-0.4,1.7-0.5,2.6c-0.3,4.7,1.9,8,6.4,9.6c1.3,0.5,2.2,0.2,3.1-0.9c3.4-4.7,6.8-9.4,10.2-14.1c1.2-1.6,1.4-3.4,1.1-5.2
	c-0.1-0.8-0.5-1.7,0.3-2.2c0.8-0.5,1.4,0.2,2.1,0.6c1.7,1,2.7,2.7,4.1,4.1c1.8,1.8,3.4,3.6,5.1,5.4c0.4,0.4,0.9,0.8,0.5,1.5
	c-0.3,0.6-1,0.7-1.6,0.8c-1.1,0-2.1-0.1-3.2,0.1c-2.2,0.5-3.7,1.9-5,3.6c-4.2,5.7-6.9,12-7.8,19.1c-1.3,10.2,0.3,20,4.9,29.3
	c3.3,6.6,7.6,12.4,13.5,16.9c3.8,2.9,7.4,6.2,11.3,9.1c0.5,0.4,1.1,0.7,1.6,1.1c0.4,0.3,0.9,0.6,0.8,1.2c0,0.6-0.6,0.7-1,0.9
	C298,157.8,297,157.6,296,157.7z"/>
<path class="st0" d="M109.6,68.9c-0.1,1.9,0.1,3.7,0.5,5.6c0.4,1.8-0.3,3.2-1.8,4c-0.5,0.3-0.8,0.2-0.8-0.4c-0.2-4.5-0.9-9-0.3-13.5
	c0.3-2.5,0.6-5.1,1.1-7.6c0.4-1.9-0.8-2.9-2.8-3.7c-1.2-0.5-2.5-0.7-3.9-0.7c-2.2,0-4.3-0.7-6.4-1.2c-1.6-0.4-3.3-0.7-4.7-1.6
	c-1.4-1-2.4-2.3-2.2-4c0.2-2,1-3.8,3-4.6c1.6-0.6,3.1,0,4.5,0.7c3.2,1.5,6.3,3.1,9.2,5.1c0.4,0.3,0.9,0.5,1.3,0.8
	c2.9,1.6,4.7,1.2,6.4-1.8c1.1-1.9,2.2-3.8,3.4-5.6c3.5-5,7.8-9.1,12.7-12.6c0.5-0.4,1.1-0.7,1.6-1.1c2.1-1.6,2.6-3.5,1.1-5.8
	c-1.4-2.3-3-4.4-4.5-6.6c-0.9-1.4-1.9-2.9-2.7-4.4c-2-3.7-0.2-6.6,3.4-7.3c1.7-0.4,3.7,0.7,4.8,2.6c1,1.8,1.4,3.8,2.1,5.7
	c0.7,2.2,1.2,4.4,1.8,6.6c1.1,4,2.6,4.7,6.5,3.6c4.4-1.3,8.8-2,13.3-2.1c4-0.1,7.9,0.3,11.8,1.2c3.1,0.7,5.1-0.6,5.6-3.7
	c0.7-3.8,1.3-7.6,2-11.4c0.5-2.7,2.6-5.2,5.5-4.8c3.1,0.4,4.6,3.8,4.2,5.9c-0.3,1.3-0.8,2.6-1.5,3.7c-2.2,3.9-4.3,7.8-5.8,12
	c-0.3,0.9-0.3,1.3,0.7,1.8c5.2,2.5,9.9,5.8,14,9.9c2.9,2.8,5.3,5.9,7.5,9.2c1.4,2,2.9,2.5,5.1,1.3c3.1-1.7,5.8-3.8,8.7-5.7
	c0.9-0.6,1.8-1.2,2.7-1.7c3.4-1.9,5.9-0.6,7.2,2.8c0.9,2.4,0,4.3-2.3,5.4c-2.2,1.1-4.6,1.6-6.9,2.3c-2.2,0.6-4.4,1.1-6.5,1.8
	c-3.1,1-3.5,2.5-2.7,5.5c0.5,2,1,4,1.5,6c0.2,0.9-0.1,1.8-0.4,2.7c-0.1,0.4-0.2,0.9-0.7,0.8c-0.5-0.1-0.7-0.4-0.8-0.9
	c-0.5-2-1.1-4.1-1.6-6.1c-1.8-6.9-5-13-9.6-18.4c-6.5-7.7-14.7-12.9-24.4-15.5c-4.9-1.3-10-2-15.1-1.7c-8.3,0.5-16.1,2.9-23,7.5
	c-7.5,5-13.2,11.5-17.1,19.6c-2.4,5-4,10.2-4.5,15.8C109.7,65.8,109.7,67.3,109.6,68.9z"/>
<path class="st0" d="M76.6,67.5c-0.3-5.2-0.4-10.9-1.9-16.4c-0.5-1.8-1.2-3.5-2-5.1c-0.8-1.6-0.4-2.1,1.4-2.1c3,0.1,6.2,2.5,7.3,5.6
	c1.1,3.2,1.8,6.5,2.5,9.7c0.4,1.9,0.8,3.9,1.1,5.8c0.2,1,0.4,2.1,0.5,3.1c0.3,2,1.4,2.7,3.4,2.3c2.2-0.5,4.4-1.1,6.5-1.8
	c1.4-0.4,1.9,0,1.9,1.5c0,1.5-0.5,2.8-1.4,3.9c-1.6,2.1-3.3,4.2-5.6,5.6c-1.5,0.9-2.1,2.3-2.3,4c-0.2,2.1-0.3,4.2-0.5,6.3
	c-0.4,5.1-0.6,10.2-1.6,15.2c-0.9,4.6-3.7,8.2-6.9,11.5c-1.8,1.7-3.5,3.4-5.6,4.8c-0.2,0.2-0.5,0.3-0.7,0.5
	c-0.5,0.3-1.2,0.7-1.6,0.1c-0.4-0.6-0.5-1.3,0.1-1.9c2.3-2.2,3-5.1,3.5-8.1c0.5-3,1-6,1.3-9c0.4-3.3,0.6-6.7,1-10
	c0.4-3.5,0-6.8-0.7-10.2c-0.2-0.9-0.6-1.5-1.5-1.8c-1.4-0.4-2.8-0.7-4.2-1.3c-3.5-1.3-5.8-5.6-5-9.1c0.4-1.6,1-1.9,2.5-1.2
	c1.6,0.7,3.1,1.4,4.8,1.8C75.5,71.8,76.9,70.1,76.6,67.5z"/>
<path class="st0" d="M241.6,74.1c0,3.8-2.6,7-6.5,8c-0.5,0.1-0.9,0.3-1.4,0.4c-2.7,0.7-3.6,2-3.9,4.8c-0.5,4.7,0,9.3,0.4,14
	c0.3,3.8,0.7,7.5,1.4,11.3c0.6,3.5,1.6,6.9,4.3,9.5c0.6,0.6,0.6,1.3,0.1,1.9c-0.4,0.5-1.1,0.4-1.6,0c-5.5-3.9-10.4-8.3-12.8-14.9
	c-0.9-2.4-1-4.9-1.2-7.4c-0.4-4-0.7-7.9-1-11.9c-0.1-1.4-0.1-2.8-0.3-4.1c-0.3-1.7-1-3.1-2.5-4c-2.6-1.5-4.2-3.9-5.9-6.1
	c-0.7-0.9-0.9-2-1-3.1c-0.2-1.5,0.6-2.2,2.1-1.7c1.7,0.6,3.4,1.1,5.2,1.5c0.8,0.2,1.5,0.3,2.3,0.3c1.4,0,2-0.4,2.2-1.7
	c0.5-3.1,1.1-6.2,1.7-9.2c0.8-3.9,1.6-7.8,3.1-11.5c1.3-3.3,4.3-4.8,7.7-3.9c0.8,0.2,0.8,0.7,0.5,1.3c-0.7,1.5-1.5,2.9-2,4.4
	c-0.8,2.5-1.3,5.1-1.6,7.7c-0.5,3.5-0.2,7.1-0.6,10.6c-0.2,2.2,1.2,3.5,3.4,3.3c1.7-0.2,3.3-0.8,4.8-1.7c2.1-1.1,2.5-0.7,3,1.8
	C241.6,73.5,241.6,73.8,241.6,74.1z"/>
<path class="st0" d="M91.5,100.9c-0.1-4,0.7-7.8,3.3-11.1c2.1-2.6,4.8-4.1,8-4.8c3.7-0.8,7.5-0.7,11.2,0.3c3.5,0.9,5.5,3.4,5.7,7
	c0.1,2.4-0.2,4.6-2.1,6.3c-0.8,0.7-1.6,1.2-2.6,1.4c-3.8,1.1-7.7,1.9-11.7,2.4c-0.2,0-0.6-0.1-0.6,0.3c0,0.3,0.2,0.6,0.5,0.8
	c1.4,0.8,2.8,1.5,4.3,1.8c5.6,0.9,10.9-0.2,15.7-3.3c0.4-0.3,1-0.9,1.4-0.6c0.5,0.4,0.1,1.2-0.1,1.7c-0.9,2.7-2.8,4.6-4.9,6.3
	c-3.4,2.7-7.2,4.2-11.5,4.7c-4.4,0.5-8.5-0.4-12.3-2.7c-3.2-1.9-4.3-4.9-4.5-8.4C91.5,102.3,91.5,101.6,91.5,100.9z M103,95.2
	c2.4-0.2,4.6-0.5,6.9-0.7c1.6-0.1,2.1-1,1.4-2.5c-0.4-0.8-1.2-1.2-2.1-1.2c-2.8-0.1-5.1,1-6.8,3.2c-0.2,0.3-0.7,0.7-0.5,1
	C102.1,95.4,102.7,95.1,103,95.2z"/>
<path class="st0" d="M148.8,95.8c-1.5-0.1-3.2,0.2-4.8,0.9c-3.8,1.5-5.4,4.7-6.5,8.3c-0.9,3-1.5,6.1-2.8,9c-0.7,1.6-2.2,2-3.6,2.4
	c-0.7,0.2-0.5-0.4-0.4-0.8c0.4-1.3,0.6-2.7,0.8-4.1c0.4-4.1,0.3-8.3-0.4-12.4c-0.6-3.6-1.3-7.3-1.8-10.9c-0.3-1.9,0.2-2.6,2-2.8
	c1.2-0.2,2.4-0.4,3.6-0.5c1.1-0.2,1.8,0.3,2.3,1.1c1.3,2.4,2.1,3,4.8,1c4.3-3.1,9-3.7,14.1-3c2.4,0.4,4.1,1.7,5,4
	c3,7.6,2.7,15.1-1.3,22.3c-2.2,4-5.8,6-10.3,6.5c-0.5,0.1-1,0.1-1.2-0.5c-0.1-0.5,0.4-0.8,0.8-0.9c0.6-0.3,1.2-0.5,1.8-0.8
	c1.5-0.7,1.8-2.2,2.3-3.6c1.5-3.9,1.5-7.9,0.9-11.9c-0.4-2.9-1.3-3.5-4.2-3.5C149.5,95.8,149.3,95.8,148.8,95.8z"/>
<path class="st0" d="M68,98.6c-0.1,4.8-1,9.4-3.9,13.5c-2.4,3.4-5.7,5.2-9.9,5.4c-0.4,0-0.8,0.1-0.8-0.4c0-0.3-0.1-0.7,0.4-0.8
	c2.7-0.2,3.6-2.2,4.4-4.4c1.4-4,1.5-8.1,0.7-12.3c-0.4-2.4-1.3-3-3.9-3.3c-3-0.3-5.8,0.5-8.1,2.3c-2.4,1.8-3.7,4.4-4.5,7.2
	c-0.8,2.7-1.2,5.4-2.2,8c-0.7,1.7-1.8,2.8-3.6,3.2c-0.3,0.1-0.5,0.3-0.8,0.1c-0.3-0.3,0-0.6,0-0.8c0.9-3.1,1.1-6.2,1-9.3
	c-0.1-3.3-0.5-6.6-1.1-9.8c-0.5-2.9-1-5.8-1.4-8.7c-0.2-1.2,0.4-1.8,1.6-2.1c1.4-0.3,2.9-0.6,4.3-0.6c0.9,0,1.4,0.3,1.9,1
	c1.7,2.8,2.1,2.9,4.9,1c2.8-1.9,5.9-3,9.3-3.2c1.7-0.1,3.4-0.1,5.1,0.3c2.3,0.5,3.9,2,4.8,4.2C67.4,92.1,68,95.3,68,98.6z"/>
<path class="st0" d="M166.4,107.1c0.2-0.5-0.3-1.4,0.3-1.5c1-0.2,2.1-0.9,3.1,0c0.5,0.4,0.9,0.9,1.4,1.4c1.9,1.9,6.7,2,8.4,0.7
	c1-0.7,1.7-1.6,1.5-2.9c-0.2-1.3-1.1-1.8-2.2-2.2c-1.1-0.4-2.2-0.7-3.4-1c-4.9-1.5-7-6.2-5-10.9c1.9-4.7,6.8-6.3,10.9-5.5
	c4.3,0.8,7.7,3.1,9.8,7.1c0.4,0.8-0.3,3.1-1.2,3.4c-0.5,0.2-0.7-0.4-1-0.7c-0.7-1-1.4-2-2.5-2.6c-2.3-1.4-4.7-1.9-7.3-0.7
	c-0.7,0.3-1.3,0.7-1.3,1.6c0.1,1,0.6,1.6,1.5,2c0.8,0.3,1.6,0.4,2.4,0.7c4.5,1.5,8.1,5.9,8.4,10.6c0.2,2.5-0.9,4.7-2.7,6.5
	c-2.7,2.8-6,3.4-9.7,3.2c-2.7-0.2-5.2-1.1-7.5-2.5c-2-1.2-3.4-2.9-3.9-5.2C166.4,108,166.4,107.5,166.4,107.1z"/>
<path class="st0" d="M204.7,84.4c1.6,0,3.3,0,4.9,0c0.7,0,1.6,0.1,1.9,0.9c0.3,0.8-0.1,1.6-0.7,2.1c-2.1,1.9-3.5,4.3-4.1,7.1
	c-0.2,0.8-0.2,1.7-0.3,2.5c-0.3,5.7-0.6,11.4,3.5,16.1c0.8,0.9,1.6,1.7,2.5,2.5c0.9,0.7,1.8,1.5,2.1,2.7c0.1,0.4,0.2,0.7-0.4,0.9
	c-0.6,0.2-1.1,0.5-1.7,0.3c-2.9-0.8-6-1.4-8.7-2.9c-2.8-1.6-4.2-4.2-5-7.2c-0.7-2.5-0.4-5.1-0.3-7.7c0.1-2.5,0.2-5,0.4-7.5
	c0.1-1.5,0.4-3-0.1-4.6c-0.4-1-0.7-2.1-1.1-3.1c-0.6-1.6-0.2-2.2,1.5-2.3C201,84.2,202.8,84.2,204.7,84.4z"/>
<path class="st0" d="M202.1,80.5c-2.9,0-4.7-1.1-5.1-3.3c-0.6-2.5,0.1-4.4,1.8-5.4c2-1.1,5.1-0.7,6.7,0.8c2.3,2.3,1.6,6.6-1.3,7.6
	C203.5,80.5,202.8,80.5,202.1,80.5z"/>
</svg>
