<?xml version="1.0" encoding="utf-8"?>
<!-- Generator: Adobe Illustrator 25.4.1, SVG Export Plug-In . SVG Version: 6.00 Build 0)  -->
<svg version="1.1" id="Ebene_1" xmlns="http://www.w3.org/2000/svg" xmlns:xlink="http://www.w3.org/1999/xlink" x="0px" y="0px"
	 width="120px" height="120px" viewBox="0 0 120 120" style="enable-background:new 0 0 120 120;" xml:space="preserve">
<style type="text/css">
	.st0{fill:#66C0BA;}
	.st1{fill:#FCC41E;}
	.st2{fill:#191713;}
</style>
<path class="st0" d="M0,0h120v120H0V0z"/>
<rect x="15.8" y="41.4" class="st1" width="88.4" height="37.2"/>
<g>
	<path class="st2" d="M34.8,55.6h3.4c0.7,0,1.2,0,1.5,0.1s0.6,0.2,0.9,0.4s0.5,0.4,0.7,0.7s0.3,0.6,0.3,1c0,0.4-0.1,0.8-0.3,1.1
		s-0.5,0.6-0.9,0.8c0.5,0.2,0.9,0.4,1.2,0.8s0.4,0.8,0.4,1.3c0,0.4-0.1,0.8-0.3,1.1s-0.4,0.7-0.7,0.9s-0.7,0.4-1.2,0.4
		c-0.3,0-1,0.1-2.1,0.1h-2.9V55.6z M36.6,57.1v2h1.1c0.7,0,1.1,0,1.3,0c0.3,0,0.5-0.1,0.7-0.3s0.3-0.4,0.3-0.7
		c0-0.3-0.1-0.5-0.2-0.6s-0.4-0.3-0.7-0.3c-0.2,0-0.7,0-1.5,0H36.6z M36.6,60.5v2.3h1.6c0.6,0,1,0,1.2-0.1c0.3,0,0.5-0.2,0.6-0.3
		s0.2-0.4,0.2-0.7c0-0.3-0.1-0.5-0.2-0.7s-0.3-0.3-0.5-0.4s-0.7-0.1-1.5-0.1H36.6z"/>
	<path class="st2" d="M47.6,64.2v-0.9c-0.2,0.3-0.5,0.6-0.9,0.8s-0.8,0.3-1.2,0.3c-0.4,0-0.8-0.1-1.1-0.3s-0.6-0.4-0.7-0.8
		s-0.2-0.8-0.2-1.4V58h1.6v2.9c0,0.9,0,1.4,0.1,1.6s0.2,0.4,0.3,0.5s0.4,0.2,0.6,0.2c0.3,0,0.5-0.1,0.8-0.2s0.4-0.3,0.5-0.6
		s0.1-0.8,0.1-1.7V58h1.6v6.2H47.6z"/>
	<path class="st2" d="M53.7,58v1.3h-1.1v2.5c0,0.5,0,0.8,0,0.9s0.1,0.2,0.1,0.2S52.9,63,53,63c0.2,0,0.4-0.1,0.7-0.2l0.1,1.3
		c-0.4,0.2-0.8,0.2-1.3,0.2c-0.3,0-0.6,0-0.8-0.1s-0.4-0.2-0.5-0.4S51,63.5,51,63.2c0-0.2-0.1-0.6-0.1-1.2v-2.7h-0.8V58h0.8v-1.2
		l1.7-1V58H53.7z"/>
	<path class="st2" d="M57.7,58v1.3h-1.1v2.5c0,0.5,0,0.8,0,0.9s0.1,0.2,0.1,0.2S56.9,63,57,63c0.2,0,0.4-0.1,0.7-0.2l0.1,1.3
		c-0.4,0.2-0.8,0.2-1.3,0.2c-0.3,0-0.6,0-0.8-0.1s-0.4-0.2-0.5-0.4s-0.2-0.4-0.2-0.6c0-0.2-0.1-0.6-0.1-1.2v-2.7h-0.8V58h0.8v-1.2
		l1.7-1V58H57.7z"/>
	<path class="st2" d="M58.4,61c0-0.5,0.1-1.1,0.4-1.6s0.7-0.9,1.1-1.2s1-0.4,1.7-0.4c0.9,0,1.7,0.3,2.3,0.9s0.9,1.4,0.9,2.3
		c0,0.9-0.3,1.7-0.9,2.3s-1.4,0.9-2.3,0.9c-0.6,0-1.1-0.1-1.6-0.4s-0.9-0.6-1.2-1.1S58.4,61.7,58.4,61z M60.1,61.1
		c0,0.6,0.1,1.1,0.4,1.4s0.7,0.5,1.1,0.5s0.8-0.2,1.1-0.5s0.4-0.8,0.4-1.4c0-0.6-0.1-1.1-0.4-1.4s-0.7-0.5-1.1-0.5s-0.8,0.2-1.1,0.5
		S60.1,60.5,60.1,61.1z"/>
	<path class="st2" d="M71.8,64.2h-1.6V61c0-0.7,0-1.1-0.1-1.3s-0.2-0.4-0.3-0.5s-0.3-0.2-0.6-0.2c-0.3,0-0.5,0.1-0.8,0.2
		S68,59.7,67.9,60s-0.1,0.7-0.1,1.4v2.8h-1.6V58h1.5v0.9c0.5-0.7,1.2-1.1,2.1-1.1c0.4,0,0.7,0.1,1,0.2s0.5,0.3,0.7,0.5
		s0.3,0.4,0.3,0.7s0.1,0.6,0.1,1.1V64.2z"/>
	<path class="st2" d="M75.9,61.7v-1.2h6.7v1.2H75.9z"/>
	<path class="st2" d="M81.9,61.7v-1.2h6.7v1.2H81.9z"/>
	<path class="st2" d="M84.8,64.4v-1.7l4.1-1.6l-4.1-1.6v-1.6l5.9,2.5v1.4L84.8,64.4z"/>
</g>
</svg>
