<svg enable-background="new 0 0 120 120" viewBox="0 0 120 120" xmlns="http://www.w3.org/2000/svg"><path d="m0 0h120v120h-120z" fill="#1880b6"/><g stroke="#324249" stroke-linejoin="round" stroke-width="2"><path d="m34.8 33.7h49.7v52.5h-49.7z" fill="#daecf2" stroke-linecap="round"/><path d="m73.5 72.4h-30.4m30.4-11.1h-22.1m22.1-11h-13.8" fill="none" stroke-linecap="round"/><circle cx="34.8" cy="36.5" fill="#ff6673" r="16.6"/><path d="m40.7 38.4 2-2c2.2-2.2 2.2-5.7 0-7.8-2.2-2.2-5.7-2.2-7.8 0l-2 2m-3.9 3.9-2 2c-2.2 2.2-2.2 5.7 0 7.8 2.2 2.2 5.7 2.2 7.8 0l2-2m2-9.7-7.8 7.8" fill="none" stroke-linecap="round"/></g></svg>